<svg xmlns="http://www.w3.org/2000/svg" xmlns:xlink="http://www.w3.org/1999/xlink" fill="none" version="1.1" width="42" height="154" viewBox="0 0 42 154"><g style="mix-blend-mode:passthrough" transform="matrix(-1,0,0,1,82,0)"><path d="M41,136.754C41,140.425,43.49838,143.625,47.05971,144.515L81,153L81,1L47.05971,9.48507C43.49838,10.37541,41,13.5753,41,17.2462L41,136.754Z" fill="#FFFFFF" fill-opacity="1"/><path d="M40,136.754L40,17.2462Q40,14.1489,41.906151,11.7075Q43.8123,9.26615,46.81718,8.51493L82,-0.28078000000000003L82,154.281L46.81718,145.485Q43.81228,144.734,41.906151,142.292Q40,139.851,40,136.754ZM41,136.754C41,140.425,43.49838,143.625,47.05971,144.515L80,152.75L81,153L81,1L47.05971,9.48507C43.49838,10.37541,41,13.5753,41,17.2462L41,136.754Z" fill-rule="evenodd" fill="#DCDCDC" fill-opacity="1"/></g></svg>